inDegrees=yes
name=ik_S40_A02_T01
DataType=double
version=3
OpenSimVersion=4.3-2021-08-27-4bc7ad9
endheader
time	pelvis_tilt	pelvis_list	pelvis_rotation	pelvis_tx	pelvis_ty	pelvis_tz	hip_flexion_r	hip_adduction_r	hip_rotation_r	knee_angle_r	knee_angle_r_beta	ankle_angle_r	subtalar_angle_r	mtp_angle_r	hip_flexion_l	hip_adduction_l	hip_rotation_l	knee_angle_l	knee_angle_l_beta	ankle_angle_l	subtalar_angle_l	mtp_angle_l	lumbar_extension	lumbar_bending	lumbar_rotation	arm_flex_r	arm_add_r	arm_rot_r	elbow_flex_r	pro_sup_r	wrist_flex_r	wrist_dev_r	arm_flex_l	arm_add_l	arm_rot_l	elbow_flex_l	pro_sup_l	wrist_flex_l	wrist_dev_l
27.95999999999949	-0.1581221863213244	-18.74951104936098	76.68202269551132	0	0.9399999999999999	0	31.06225566852871	-1.549712647242033	-4.109778566444072	3.235852382831281	0.05647627818890989	0	0	0	20.36935912566575	-2.402643993008086	-10.23085347845803	-4.249213188544533	-0.0741627607592687	0	0	0	0	0	0	42.04221382380416	-42.04221382380416	4.957810168751068	84.39378536810578	85.0421901039431	0	0	42.04221382380416	-42.04221382380416	4.957810168751068	84.39378536810578	85.0421901039355	0	0
27.97999999999949	-0.1130622855690807	-18.71814340581767	76.63824431546927	0	0.9399999999999999	0	30.30144080440585	-2.012578194871798	-3.226345690442853	4.437052612121344	0.07744117716573232	0	0	0	20.97805137676322	-2.705288156440254	-10.34631523536315	-4.993321541742804	-0.0871499015141714	0	0	0	0	0	0	42.04300413026952	-42.04300413026952	4.957832802441064	84.39411059959211	85.04216747025396	0	0	42.04300413026952	-42.04300413026952	4.957832802441064	84.39411059959211	85.04216747024637	0	0
27.99999999999949	0.005985005831698237	-18.7069269192126	76.62129422443229	0	0.9399999999999999	0	30.30253084115221	-2.121607229114913	-3.293422543645812	6.415362981336554	0.1119692067348824	0	0	0	21.23371155572313	-2.955488885644419	-10.24344771303079	-5.038732831758375	-0.08794247804252114	0	0	0	0	0	0	42.04417461319242	-42.04417461319242	4.957866087981881	84.39458889086323	85.04213418471456	0	0	42.04417461319242	-42.04417461319242	4.957866087981881	84.39458889086323	85.04213418470697	0	0
28.01999999999949	0.05826904553353885	-18.73708797971675	76.52707563933602	0	0.9399999999999999	0	29.53317512668557	-2.475277747530959	-2.522796442691447	7.253406970570583	0.1265958336235641	0	0	0	21.27592693717004	-3.046798975989863	-10.2006313635313	-5.491349812689234	-0.09584213461020102	0	0	0	0	0	0	42.04509082368221	-42.04509082368221	4.957892358909364	84.39496638713388	85.04210791378821	0	0	42.04509082368221	-42.04509082368221	4.957892358909364	84.39496638713388	85.04210791378061	0	0
28.03999999999949	0.0576344189176082	-18.73674171941021	76.52750884326289	0	0.9399999999999999	0	28.68036618887381	-2.810114209583072	-1.921188076858043	7.826079860858363	0.1365908610959981	0	0	0	21.52832627003416	-3.177841519426088	-10.17730540275133	-5.835488986588396	-0.1018484962798347	0	0	0	0	0	0	42.0459383852827	-42.0459383852827	4.957916632131029	84.39531517759255	85.04208364056753	0	0	42.0459383852827	-42.0459383852827	4.957916632131029	84.39531517759255	85.04208364055992	0	0
28.05999999999949	0.07309673084685638	-18.79355564530659	76.45006631250345	0	0.9399999999999999	0	27.6935745064369	-3.002401526013285	-1.679266323815932	7.956508281685611	0.1388672664776104	0	0	0	21.7809311781773	-3.359735988381798	-10.44730641121966	-6.388055055415266	-0.1114925935156652	0	0	0	0	0	0	42.04686312207911	-42.04686312207911	4.957943101879152	84.39569553067705	85.04205717082044	0	0	42.04686312207911	-42.04686312207911	4.957943101879152	84.39569553067705	85.04205717081285	0	0
28.07999999999949	0.002982630232868735	-18.86956174075204	76.33352267716806	0	0.9399999999999999	0	26.69321671628912	-3.252860901910014	-1.827333539526105	7.782376187787417	0.1358280881056949	0	0	0	22.12205613825576	-3.488759713208997	-10.61720051631354	-6.753111545470802	-0.1178640312229082	0	0	0	0	0	0	42.04755681819557	-42.04755681819557	4.957962913782914	84.39598021477717	85.04203735891747	0	0	42.04755681819557	-42.04755681819557	4.957962913782914	84.39598021477717	85.04203735890988	0	0
28.09999999999949	-0.08764023612004462	-18.91265569015837	76.22913722151273	0	0.9399999999999999	0	25.54846864876382	-3.381385078095739	-2.247839341518223	6.751621525079695	0.1178380254611616	0	0	0	22.45136086964011	-3.586441686967884	-10.56601779504236	-7.017076512560952	-0.1224710890085498	0	0	0	0	0	0	42.0481660665379	-42.0481660665379	4.957980359442153	84.39623089756674	85.04201991325898	0	0	42.0481660665379	-42.0481660665379	4.957980359442153	84.39623089756674	85.04201991325139	0	0
28.11999999999949	-0.3210323556970898	-18.88087822125362	75.99665381848263	0	0.9399999999999999	0	24.36580604189291	-3.709144435960507	-2.984127075382614	6.160391703482873	0.1075191184383184	0	0	0	22.68536213677329	-3.544744509850807	-10.56232228518674	-7.167197205794047	-0.1250911893808437	0	0	0	0	0	0	42.0489479974838	-42.0489479974838	4.958002785592821	84.39655314683142	85.04199748710924	0	0	42.0489479974838	-42.0489479974838	4.958002785592821	84.39655314683142	85.04199748710164	0	0
28.13999999999949	-0.3272756441033421	-18.88676419395517	76.00441603829287	0	0.9399999999999999	0	22.33032894118007	-4.032519579513141	-4.807733677873307	3.96166447871308	0.06914408901284805	0	0	0	22.9367550658307	-3.648353326392641	-10.43970761288215	-7.540580257496037	-0.1316079530041877	0	0	0	0	0	0	42.04572396824958	-42.04572396824958	4.957931657783694	84.3955311208376	85.04206861491565	0	0	42.04572396824958	-42.04572396824958	4.957931657783694	84.3955311208376	85.04206861490799	0	0
